# xmcd
#
# Track frame offsets:
#	150
#	15830
#	34781
#	53443
#	69299
#	84112
#	99702
#	117035
#	134637
#	150371
#	166499
#	183299
#	198433
#	212987
#	226845
#	242595
#	257748
#	273798
#	288515
#	304952
#	321363
#
# Disc length: 4675 seconds
#
# Revision: 1
# Processed by: cddbd v1.5.2PL0 Copyright (c) Steve Scherf et al.
# Submitted via: audiograbber 1.83.01
#
DISCID=14124115
DTITLE=Darius and Finlay - Summer Is Here
DYEAR=2013
DGENRE=Club House
TTITLE0=Summer Is Here
TTITLE1=Tropicali
TTITLE2=Get Away
TTITLE3=Lay You Down
TTITLE4=Sugar Daddy
TTITLE5=Do It All Night 2k12
TTITLE6=Feeling The Love
TTITLE7=Never Be Lonely
TTITLE8=Get Up
TTITLE9=Give Me Your Love
TTITLE10=Hands Up
TTITLE11=Tonight
TTITLE12=Enjoy Your Life
TTITLE13=Phenomenon
TTITLE14=Gimme That Soul
TTITLE15=Count It Down (Like Maddie)
TTITLE16=Rock To The Beat
TTITLE17=Hold On
TTITLE18=Till Morning
TTITLE19=Tropicali (Original Radio Mix)
TTITLE20=Still Summer (A Pleasant Memory From Cofete)
EXTD=
EXTT0=
EXTT1=
EXTT2=
EXTT3=
EXTT4=
EXTT5=
EXTT6=
EXTT7=
EXTT8=
EXTT9=
EXTT10=
EXTT11=
EXTT12=
EXTT13=
EXTT14=
EXTT15=
EXTT16=
EXTT17=
EXTT18=
EXTT19=
EXTT20=
PLAYORDER=
